<?xml version="1.0" encoding="utf-8"?>
<!-- Generator: Adobe Illustrator 17.0.0, SVG Export Plug-In . SVG Version: 6.00 Build 0)  -->
<!DOCTYPE svg PUBLIC "-//W3C//DTD SVG 1.1//EN" "http://www.w3.org/Graphics/SVG/1.1/DTD/svg11.dtd">
<svg version="1.1" id="Layer_1" xmlns="http://www.w3.org/2000/svg" xmlns:xlink="http://www.w3.org/1999/xlink" x="0px" y="0px"
	 width="960px" height="560px" viewBox="0 0 960 560" enable-background="new 0 0 960 560" fill-opacity="0.0" xml:space="preserve">
<g>
	<path d="M317.825,320.182h-29.392v-4.024c0.935-0.081,1.961-0.162,3.08-0.244c1.118-0.081,2.042-0.244,2.774-0.488
		c1.138-0.365,1.982-1.006,2.531-1.921c0.549-0.914,0.823-2.104,0.823-3.567v-30.916c0-4.269-1.009-7.561-3.026-9.878
		s-4.472-3.476-7.365-3.476c-2.16,0-4.136,0.335-5.93,1.006c-1.793,0.671-3.381,1.494-4.767,2.47
		c-1.345,0.936-2.415,1.942-3.209,3.019c-0.795,1.078-1.376,1.942-1.742,2.591v34.575c0,1.383,0.284,2.521,0.854,3.415
		c0.569,0.895,1.422,1.585,2.561,2.073c0.854,0.406,1.778,0.712,2.775,0.914c0.996,0.204,2.021,0.347,3.079,0.428v4.024h-29.453
		v-4.024c0.935-0.081,1.9-0.162,2.896-0.244c0.996-0.081,1.86-0.243,2.591-0.487c1.138-0.364,1.982-1.004,2.531-1.918
		c0.549-0.913,0.823-2.102,0.823-3.563v-37.092c0-1.381-0.295-2.65-0.884-3.807c-0.59-1.157-1.413-2.101-2.47-2.833
		c-0.772-0.487-1.687-0.842-2.744-1.065c-1.058-0.223-2.195-0.375-3.415-0.458v-4.024l20.001-1.341l0.854,0.854v8.476h0.305
		c0.976-0.976,2.195-2.144,3.659-3.506c1.464-1.361,2.845-2.47,4.146-3.323c1.504-0.976,3.293-1.789,5.366-2.439
		c2.073-0.649,4.411-0.976,7.013-0.976c5.772,0,10.051,1.799,12.836,5.397c2.784,3.598,4.177,8.384,4.177,14.36v31.282
		c0,1.423,0.244,2.571,0.732,3.445c0.488,0.875,1.32,1.555,2.5,2.043c0.976,0.406,1.819,0.691,2.531,0.854
		c0.711,0.163,1.697,0.285,2.958,0.366V320.182z"/>
	<path d="M378.621,306.034c-2.521,4.798-5.895,8.619-10.123,11.464c-4.229,2.846-9.086,4.269-14.574,4.269
		c-4.838,0-9.077-0.854-12.714-2.561c-3.639-1.708-6.637-4.025-8.994-6.952c-2.358-2.927-4.116-6.342-5.275-10.244
		s-1.738-8.028-1.738-12.379c0-3.902,0.619-7.733,1.86-11.494c1.239-3.76,3.059-7.144,5.458-10.153
		c2.317-2.886,5.193-5.213,8.628-6.982c3.435-1.769,7.287-2.653,11.556-2.653c4.391,0,8.15,0.692,11.281,2.073
		c3.13,1.383,5.671,3.273,7.622,5.671c1.87,2.277,3.263,4.96,4.177,8.049c0.915,3.09,1.372,6.444,1.372,10.062v4.024h-39.819
		c0,3.952,0.375,7.538,1.128,10.757c0.752,3.219,1.941,6.051,3.567,8.495c1.585,2.363,3.659,4.228,6.22,5.592
		c2.562,1.365,5.61,2.048,9.147,2.048c3.618,0,6.738-0.848,9.36-2.544s5.153-4.751,7.592-9.164L378.621,306.034z M365.145,283.106
		c0-2.27-0.194-4.701-0.58-7.295c-0.387-2.593-1.006-4.762-1.86-6.505c-0.936-1.864-2.216-3.383-3.842-4.559
		c-1.626-1.176-3.72-1.764-6.281-1.764c-4.269,0-7.816,1.773-10.641,5.319c-2.826,3.546-4.36,8.481-4.604,14.804H365.145z"/>
	<path d="M450.027,319.084l-19.632,1.342l-0.917-0.854v-7.622h-0.365c-0.975,1.017-2.07,2.104-3.288,3.263
		c-1.218,1.158-2.618,2.205-4.2,3.14c-1.827,1.098-3.593,1.931-5.297,2.501c-1.705,0.568-4.119,0.854-7.243,0.854
		c-5.318,0-9.366-1.736-12.146-5.208c-2.78-3.473-4.169-8.518-4.169-15.138v-28.751c0-1.461-0.276-2.69-0.829-3.685
		c-0.553-0.995-1.361-1.858-2.424-2.59c-0.736-0.487-1.657-0.842-2.762-1.065c-1.105-0.223-2.271-0.375-3.498-0.458v-4.024
		l20.062-1.463l0.915,0.854v41.77c0,4.351,0.976,7.623,2.927,9.818s4.289,3.293,7.013,3.293c2.235,0,4.228-0.346,5.976-1.035
		c1.747-0.689,3.211-1.503,4.39-2.438c1.098-0.852,2.063-1.755,2.896-2.71c0.833-0.953,1.473-1.837,1.921-2.649v-34.045
		c0-1.34-0.285-2.528-0.854-3.563c-0.57-1.035-1.362-1.918-2.378-2.649c-0.731-0.488-1.82-0.782-3.262-0.883
		c-1.443-0.101-3.06-0.192-4.848-0.274v-4.024l21.889-1.463l0.917,0.853v47.694c0,1.382,0.284,2.56,0.854,3.534
		c0.569,0.975,1.362,1.807,2.378,2.496c0.731,0.448,1.605,0.742,2.622,0.885c1.016,0.142,2.134,0.233,3.354,0.273V319.084z"/>
	<path d="M494.542,317.56c-2.643,1.098-5.143,2.022-7.5,2.774c-2.358,0.752-5.244,1.128-8.66,1.128
		c-5.041,0-8.588-1.271-10.641-3.812c-2.053-2.54-3.08-6.128-3.08-10.763v-40.733h-10.854V260.3h11.098V241.58h11.098V260.3h17.257
		v5.854h-17.135v33.599c0,2.521,0.091,4.625,0.274,6.312c0.183,1.688,0.62,3.162,1.312,4.421c0.649,1.18,1.625,2.073,2.927,2.684
		c1.301,0.609,3.05,0.914,5.245,0.914c1.016,0,2.509-0.091,4.481-0.274c1.972-0.183,3.363-0.416,4.177-0.701V317.56z"/>
	<path d="M546.558,267.801c0,2.073-0.509,3.913-1.524,5.519c-1.017,1.606-2.582,2.409-4.695,2.409c-2.277,0-4.016-0.589-5.214-1.769
		c-1.199-1.179-1.799-2.479-1.799-3.903c0-0.894,0.07-1.707,0.214-2.439c0.142-0.732,0.274-1.463,0.396-2.195
		c-1.911,0-4.146,0.773-6.707,2.317c-2.562,1.545-4.736,3.741-6.525,6.585v35.002c0,1.424,0.274,2.582,0.823,3.476
		c0.549,0.895,1.412,1.565,2.592,2.013c1.016,0.406,2.327,0.712,3.934,0.914c1.605,0.204,2.997,0.347,4.177,0.428v4.024h-31.709
		v-4.024c0.935-0.081,1.899-0.162,2.896-0.244c0.995-0.081,1.859-0.243,2.592-0.487c1.138-0.364,1.981-1.004,2.53-1.918
		c0.549-0.913,0.823-2.102,0.823-3.563v-37.092c0-1.259-0.295-2.498-0.884-3.715c-0.59-1.217-1.413-2.192-2.47-2.924
		c-0.773-0.487-1.688-0.842-2.744-1.065c-1.058-0.223-2.195-0.375-3.415-0.458v-4.024l20.001-1.341l0.854,0.854v8.476h0.306
		c2.52-3.293,5.325-5.793,8.415-7.5c3.089-1.708,5.915-2.561,8.476-2.561c2.562,0,4.645,0.833,6.251,2.5
		C545.755,262.76,546.558,264.996,546.558,267.801z"/>
	<path d="M580.827,320.182h-29.025v-4.024c0.935-0.081,1.899-0.162,2.896-0.244c0.995-0.081,1.859-0.243,2.592-0.487
		c1.138-0.364,1.981-1.004,2.53-1.918c0.549-0.913,0.823-2.102,0.823-3.563v-37.092c0-1.3-0.296-2.487-0.884-3.563
		c-0.59-1.076-1.413-1.979-2.47-2.71c-0.773-0.487-1.891-0.903-3.354-1.248c-1.463-0.345-2.805-0.559-4.024-0.641v-4.024
		l21.221-1.341l0.854,0.854v49.027c0,1.424,0.272,2.603,0.817,3.537c0.545,0.936,1.403,1.626,2.574,2.073
		c0.888,0.365,1.756,0.661,2.604,0.884c0.848,0.224,1.797,0.377,2.847,0.458V320.182z M573.205,235.604
		c0,2.317-0.762,4.34-2.286,6.067c-1.525,1.729-3.406,2.592-5.641,2.592c-2.073,0-3.873-0.823-5.397-2.47s-2.286-3.526-2.286-5.641
		c0-2.235,0.762-4.187,2.286-5.854c1.524-1.667,3.324-2.5,5.397-2.5c2.316,0,4.217,0.783,5.701,2.348
		C572.463,231.711,573.205,233.53,573.205,235.604z"/>
	<path d="M654.674,320.182h-29.392v-4.024c0.935-0.081,1.96-0.162,3.079-0.244c1.117-0.081,2.043-0.244,2.774-0.488
		c1.138-0.365,1.981-1.006,2.53-1.921c0.549-0.914,0.823-2.104,0.823-3.567v-30.916c0-4.269-1.009-7.561-3.025-9.878
		c-2.018-2.317-4.473-3.476-7.365-3.476c-2.16,0-4.137,0.335-5.93,1.006s-3.381,1.494-4.767,2.47
		c-1.346,0.936-2.414,1.942-3.209,3.019c-0.795,1.078-1.376,1.942-1.742,2.591v34.575c0,1.383,0.284,2.521,0.854,3.415
		c0.568,0.895,1.422,1.585,2.561,2.073c0.854,0.406,1.778,0.712,2.774,0.914c0.996,0.204,2.022,0.347,3.08,0.428v4.024h-29.453
		v-4.024c0.935-0.081,1.899-0.162,2.896-0.244c0.995-0.081,1.859-0.243,2.592-0.487c1.138-0.364,1.981-1.004,2.53-1.918
		c0.549-0.913,0.823-2.102,0.823-3.563v-37.092c0-1.381-0.295-2.65-0.884-3.807c-0.59-1.157-1.413-2.101-2.47-2.833
		c-0.773-0.487-1.688-0.842-2.744-1.065c-1.058-0.223-2.195-0.375-3.415-0.458v-4.024l20.001-1.341l0.854,0.854v8.476h0.306
		c0.976-0.976,2.195-2.144,3.658-3.506c1.464-1.361,2.845-2.47,4.146-3.323c1.504-0.976,3.293-1.789,5.366-2.439
		c2.073-0.649,4.411-0.976,7.013-0.976c5.772,0,10.051,1.799,12.836,5.397c2.784,3.598,4.178,8.384,4.178,14.36v31.282
		c0,1.423,0.243,2.571,0.731,3.445c0.487,0.875,1.32,1.555,2.5,2.043c0.976,0.406,1.819,0.691,2.53,0.854
		c0.711,0.163,1.697,0.285,2.958,0.366V320.182z"/>
	<path d="M720.715,289.509c0,4.229-0.672,8.385-2.015,12.471c-1.344,4.085-3.256,7.552-5.737,10.396
		c-2.81,3.253-6.064,5.671-9.768,7.257c-3.703,1.585-7.854,2.378-12.453,2.378c-3.215,0-6.308-0.549-9.278-1.646
		s-5.718-2.683-8.24-4.756c-1.751,2.114-3.439,4.188-5.064,6.22c-1.627,2.032-2.5,3.13-2.622,3.293L662,322.499l8.11-9.94
		c-2.483-2.764-4.467-5.985-5.952-9.665c-1.485-3.679-2.228-7.855-2.228-12.531c0-9.39,2.736-17.074,8.21-23.049
		c5.474-5.976,12.646-8.964,21.519-8.964c3.58,0,6.816,0.509,9.705,1.525c2.889,1.017,5.535,2.48,7.936,4.39l6.771-8.598
		l3.537,2.683l-7.195,8.842c2.604,2.805,4.638,6.108,6.104,9.909C719.981,280.901,720.715,285.037,720.715,289.509z
		 M704.242,270.484c-1.344-2.357-3.004-4.197-4.979-5.519c-1.976-1.32-4.551-1.981-7.728-1.981c-3.299,0-6.058,0.803-8.277,2.409
		c-2.22,1.606-4.002,3.689-5.345,6.25c-1.304,2.48-2.23,5.305-2.78,8.476s-0.824,6.241-0.824,9.208c0,2.805,0.172,5.57,0.52,8.293
		c0.346,2.724,0.864,5.204,1.558,7.439L704.242,270.484z M704.242,309.205c1.426-2.723,2.464-5.65,3.116-8.781
		c0.651-3.13,0.978-6.728,0.978-10.793c0-2.562-0.163-5.162-0.489-7.806c-0.325-2.642-0.855-5.061-1.588-7.256l-27.856,34.697
		c1.385,2.521,3.116,4.503,5.193,5.945c2.077,1.443,4.724,2.164,7.941,2.164c2.851,0,5.345-0.741,7.483-2.226
		C701.158,313.667,702.899,311.686,704.242,309.205z"/>
	<path d="M750.289,313.169c0,2.277-0.823,4.218-2.47,5.823s-3.608,2.409-5.885,2.409c-2.277,0-4.238-0.804-5.885-2.409
		s-2.47-3.546-2.47-5.823c0-2.276,0.823-4.238,2.47-5.885s3.607-2.47,5.885-2.47c2.276,0,4.238,0.823,5.885,2.47
		S750.289,310.893,750.289,313.169z"/>
</g>
<path fill="#D4145A" d="M190.061,285.776c0.406-1.545,1.014-3.131,1.829-4.757c0.811-1.626,1.93-3.232,3.354-4.818
	c1.464-1.586,2.997-2.855,4.603-3.812c1.606-0.953,3.528-1.432,5.763-1.432c2.316,0,4.351,0.337,6.099,1.006
	c1.748,0.673,3.252,1.375,4.51,2.105c1.423,0.811,2.778,1.545,4.055,2.194c1.281,0.653,2.697,0.977,4.238,0.977
	c1.261,0,2.206-0.162,2.839-0.487c0.629-0.328,1.29-0.876,1.979-1.646c0.653-0.734,1.302-1.699,1.955-2.9
	c0.649-1.196,1.257-2.287,1.829-3.26l3.536,1.525c-0.406,1.302-1.099,2.867-2.072,4.696c-0.977,1.829-2.036,3.435-3.171,4.818
	c-1.221,1.46-2.705,2.713-4.453,3.747c-1.748,1.038-3.577,1.557-5.487,1.557c-2.279,0-4.238-0.337-5.884-1.006
	c-1.646-0.673-3.163-1.395-4.546-2.166c-1.545-0.856-2.843-1.586-3.901-2.194c-1.058-0.612-2.356-0.916-3.901-0.916
	c-1.626,0-2.94,0.191-3.934,0.58c-0.998,0.385-1.78,0.925-2.348,1.614c-0.649,0.775-1.188,1.606-1.618,2.502
	c-0.426,0.892-0.945,2.052-1.553,3.475L190.061,285.776z"/>
<path fill="#D4145A" d="M190.061,307.232c0.406-1.545,1.014-3.131,1.829-4.757c0.811-1.626,1.93-3.232,3.354-4.818
	c1.464-1.586,2.997-2.855,4.603-3.812c1.606-0.953,3.528-1.432,5.763-1.432c2.316,0,4.351,0.337,6.099,1.006
	c1.748,0.673,3.252,1.375,4.51,2.105c1.423,0.811,2.778,1.545,4.055,2.194c1.281,0.653,2.697,0.977,4.238,0.977
	c1.261,0,2.206-0.162,2.839-0.487c0.629-0.328,1.29-0.876,1.979-1.646c0.653-0.734,1.302-1.699,1.955-2.9
	c0.649-1.196,1.257-2.287,1.829-3.26l3.536,1.525c-0.406,1.302-1.099,2.867-2.072,4.696c-0.977,1.829-2.036,3.435-3.171,4.818
	c-1.221,1.46-2.705,2.713-4.453,3.747c-1.748,1.038-3.577,1.557-5.487,1.557c-2.279,0-4.238-0.337-5.884-1.006
	c-1.646-0.673-3.163-1.395-4.546-2.166c-1.545-0.856-2.843-1.586-3.901-2.194c-1.058-0.612-2.356-0.917-3.901-0.917
	c-1.626,0-2.94,0.191-3.934,0.58c-0.998,0.385-1.78,0.925-2.348,1.614c-0.649,0.775-1.188,1.606-1.618,2.502
	c-0.426,0.892-0.945,2.052-1.553,3.475L190.061,307.232z"/>
</svg>
